<svg width="150" height="150" viewBox="0 0 150 150" fill="none" xmlns="http://www.w3.org/2000/svg">
<circle cx="75" cy="75" r="75" fill="#F8A0A0"/>
<mask id="mask0_239_70" style="mask-type:alpha" maskUnits="userSpaceOnUse" x="0" y="0" width="150" height="150">
<circle cx="75" cy="75" r="75" fill="#D9D9D9"/>
</mask>
<g mask="url(#mask0_239_70)">
<path d="M63.5533 79.2912L48.9945 49.2912L45.8823 48.0882L42.3529 49.853C42.3529 49.853 41.4299 60.2926 41.9117 69.5854C42.1266 73.7291 41.9357 70.9089 42.3768 79.2912C42.4781 81.2148 42.5417 84.5216 41.9357 86.3501C40.9875 89.2109 39.5057 90.3774 37.9651 92.9677C32.6779 101.857 24.7298 115.909 24.7298 115.909C24.7298 115.909 20.22 123.689 18.5533 129.144C17.625 132.182 16.9784 133.914 16.7886 137.085C16.5919 140.371 17.671 145.468 17.671 145.468L18.7539 151.644H34.8768L34.4357 123.409L39.7298 111.056L70.6121 100.027V84.5854L63.5533 79.2912Z" fill="black"/>
<path d="M99.7298 47.5265L108.088 46.5363C108.088 46.5363 107.587 53.1093 107.23 57.2324C106.885 61.2137 106.125 63.3892 105.906 67.3795C105.746 70.304 105.602 71.9663 105.906 74.8795C106.18 77.5008 107.23 81.4971 107.23 81.4971C107.23 81.4971 108.312 85.8955 109.436 88.5559C111.611 93.706 114.331 95.7796 117.377 100.468C119.825 104.235 121.619 106.36 123.994 110.174C125.385 112.406 125.318 112.379 127.524 115.468C128.791 117.241 129.73 119.879 129.73 119.879C129.73 119.879 130.171 122.127 130.171 123.85V123.85C130.171 125.573 130.171 126.938 128.847 132.232C127.524 137.527 127.32 137.278 127.083 140.615C126.862 143.713 126.954 145.503 127.524 148.556C127.885 150.487 128.847 153.409 128.847 153.409H118.259L119.142 126.938L110.759 114.585L92.671 103.997L83.8474 96.4971V83.703L94.4357 66.0559L99.7298 47.5265Z" fill="black"/>
<path d="M100.147 51.0559C99.819 55.1554 99.2472 59.194 98.3184 62.9677C96.7483 69.3469 94.1578 74.9693 89.9999 78.85C88.5803 80.175 87.2972 81.4203 86.0293 82.5383C83.0752 85.143 80.2038 87.0562 75.8822 87.6736C73.8288 87.126 71.9362 86.4085 70.1469 85.5343C66.1699 83.5911 62.7037 80.8736 59.1175 77.5265C55.6169 74.2593 53.3508 70.2514 51.7968 65.5027C50.4131 61.2744 49.5939 56.4588 48.9705 51.0559C48.9705 50.4643 48.9805 49.8759 49.0004 49.2912C49.6513 30.1311 60.8452 14.8795 74.5587 14.8795C88.061 14.8795 99.1207 29.665 100.079 48.4089C100.124 49.283 100.147 50.1657 100.147 51.0559Z" fill="#DBAE7F"/>
<path d="M48.9705 51.0559C48.9705 50.4643 48.9805 49.8759 49.0004 49.2912C49.0004 49.2912 47.7013 48.7957 47.2058 49.2912C45.4411 51.0559 45.5554 52.1344 45.4411 52.8206C45.2579 53.9199 45.1243 56.7798 45.4411 58.9971C45.7189 60.9418 46.1344 61.9596 46.7646 63.85C47.2058 65.1736 48.5293 66.0559 48.5293 66.0559C48.5293 66.0559 49.8528 66.9383 51.1764 66.4971C51.6106 66.3524 51.7968 65.5027 51.7968 65.5027C50.4131 61.2744 49.5939 56.4588 48.9705 51.0559Z" fill="#DBAE7F"/>
<path d="M100.079 48.4089C100.124 49.283 100.147 50.1657 100.147 51.0559C99.819 55.1554 99.2472 59.194 98.3184 62.9677C98.3184 62.9677 99.2925 63.7494 100.147 63.85C101.167 63.9702 102.794 62.9677 102.794 62.9677C102.794 62.9677 105.187 60.9517 105.882 58.9971C106.635 56.8807 106.052 54.3887 105.441 52.3795L105.422 52.3152C104.666 49.8311 104.099 47.9639 101.912 47.5265C101.133 47.3708 100.079 48.4089 100.079 48.4089Z" fill="#DBAE7F"/>
<path d="M75.8822 87.6736C73.8288 87.126 71.9362 86.4085 70.1469 85.5343C70.1469 85.5343 71.3724 90.5884 70.1469 93.4089C69.7466 94.3303 69.3958 94.7892 68.8234 95.6148C64.9998 101.129 60.8822 102.232 53.8234 104.438C47.4099 106.442 42.6076 105.78 37.9411 110.615C36.3136 112.301 35.4431 113.364 34.4116 115.468C32.9392 118.471 32.7636 120.507 32.6469 123.85C32.5441 126.797 33.5293 131.35 33.5293 131.35L34.4116 140.615L35.294 151.644L119.118 153.409C119.118 153.409 120.929 146.212 121.323 141.497C121.654 137.548 121.825 135.316 121.765 131.35C121.72 128.416 121.323 122.647 121.323 122.647C121.323 122.647 120.92 120.718 120.441 119.559C119.805 118.02 119.195 117.114 118.235 115.909C116.925 114.264 113.823 112.821 113.823 112.821L101.029 106.203C101.029 106.203 92.5264 102.283 88.2352 98.2618C87.524 97.5954 87.3676 97.3585 86.9116 96.4971C86.4213 95.5709 86.1688 94.8887 86.0293 93.8501C85.4411 89.4719 86.0293 82.5383 86.0293 82.5383C83.0752 85.143 80.2038 87.0562 75.8822 87.6736Z" fill="#DBAE7F"/>
<path d="M90 70.1471C90 70.1471 89.2186 67.309 88.2353 65.7353C86.2815 62.6083 83.6015 62.3195 80.7353 60C78.4546 58.1543 76.8829 57.3972 75 55.1471C73.804 53.7178 73.3268 52.7654 72.3529 51.1765C70.8223 48.6793 69.7962 47.3215 68.8235 44.5588C68.0043 42.232 67.5 38.3824 67.5 38.3824V23.8235C67.5 23.8235 67.9412 24.2647 67.5 25.1471C67.0588 26.0294 67.0588 26.4706 66.1765 28.2353C65.1285 30.3313 64.4247 31.6045 63.0882 33.5294C61.0986 36.395 57.7941 40.5882 57.7941 40.5882L54.2647 44.5588L49.1886 49.5323C49.1886 49.5323 48.3062 49.0911 47.8651 49.0911C47.4239 49.0911 42.3529 49.8529 42.3529 49.8529C42.3529 49.8529 42.292 40.8955 42.7941 36.6176C43.1841 33.2952 44.5588 28.2353 44.5588 28.2353C44.5588 28.2353 46.4052 21.8282 48.9706 18.65C50.8851 16.2781 52.411 15.02 55.1471 13.6765C57.8168 12.3656 60.8823 11.9118 62.647 11.9118C64.4118 11.9118 69.7059 12.3529 69.7059 12.3529C69.7059 12.3529 71.5828 10.0544 73.2353 9.26471C75.8779 8.00175 77.8372 7.8505 80.7353 8.27444C83.6334 8.69838 86.5888 9.65709 90 11.3627C93.5294 13.1274 95.681 15.7201 97.5 17.5391C98.8235 18.8627 102.794 26.3627 102.794 26.3627C102.794 26.3627 105.19 32.5163 106.324 36.6176C107.395 40.4943 108.088 46.6568 108.088 46.6568L100.365 47.7676L99.7059 56.4706C99.7059 56.4706 98.7728 53.7177 97.9412 52.0588C96.9344 50.0507 96.2711 48.9481 94.8529 47.2059C93.0824 45.0307 89.5588 42.3529 89.5588 42.3529C89.5588 42.3529 85.7417 39.0581 82.9412 37.5C81.122 36.4879 78.0882 35.2941 78.0882 35.2941C78.0882 35.2941 76.4253 34.2878 75.4412 33.5294C73.0267 31.6689 70.147 27.7941 70.147 27.7941C70.147 27.7941 69.9311 35.0975 70.5882 39.7059C70.7362 40.7434 70.5882 39.7059 71.0294 42.3529C71.3538 44.2991 71.4969 44.7699 72.3529 46.3235C73.3947 48.2143 74.591 49.4465 75.8823 51.1765C77.1941 52.9338 79.8529 55.1471 79.8529 55.1471C79.8529 55.1471 82.2729 57.567 83.8235 59.1176C85.0296 60.3237 86.9118 62.2059 86.9118 62.2059C86.9118 62.2059 88.4855 63.665 89.1176 64.8529C90.1022 66.7033 90 70.1471 90 70.1471Z" fill="black"/>
<path d="M63.9706 113.824C61.0406 110.227 59.5588 102.794 59.5588 102.794L44.5588 106.324C44.5588 106.324 47.2103 108.829 48.5294 110.735C50.4607 113.526 51.5447 115.42 52.5 118.676C53.4808 122.02 53.6718 124.028 53.3824 127.5C53.1288 130.542 52.1168 132.095 51.1765 135C49.9343 138.837 47.6471 144.706 47.6471 144.706L51.1765 150.441L87.353 154.853L108.529 142.5C108.529 142.5 105.882 138.038 104.559 135C103.319 132.152 102.463 130.557 101.912 127.5C101.3 124.109 101.394 122.083 101.912 118.676C102.542 114.529 105.441 108.529 105.441 108.529L94.4118 102.353C94.4118 102.353 92.6471 109.853 90.4412 113.824C88.6061 117.127 86.908 119.082 83.3824 120.441C80.0065 121.743 77.1827 122.216 73.6765 121.324C69.1383 120.168 67.002 117.545 64.0611 113.935L63.9706 113.824Z" fill="#785757"/>
</g>
</svg>
