<svg width="40" height="40" viewBox="0 0 40 40" fill="none" xmlns="http://www.w3.org/2000/svg">
<path d="M33.9172 18.4172L26.6672 15.5828V10.8328H23.3344V14.3328L14.7516 11C14.1688 10.75 13.5016 10.9172 13.0016 11.3328L5.50161 18C4.83441 18.5828 4.75161 19.6672 5.33442 20.3328C5.75006 20.6672 6.16722 20.8328 6.66722 20.8328H7.50002V32.5H12.5V22.5H17.5V32.5H32.5V21.6672H33.3328C34 21.6672 34.6656 21.25 34.9156 20.5844C35.25 19.7501 34.8328 18.7501 33.9172 18.4172L33.9172 18.4172ZM29.1672 22.5V25H25.8344V22.5H29.1672ZM20.8328 22.5H24.1656V25H20.8328V22.5ZM20.8328 29.1672V26.6672H24.1656V29.1672H20.8328ZM29.1672 29.1672H25.8344V26.6672H29.1672V29.1672Z" fill="#446688"/>
</svg>
