<svg width="40" height="40" viewBox="0 0 40 40" fill="none" xmlns="http://www.w3.org/2000/svg">
<path d="M20 25C14 25 9.16724 26.8328 9.16724 29.1672C9.16724 31.5 14 33.3344 20 33.3344C26 33.3344 30.8328 31.5016 30.8328 29.1672C30.8328 26.8328 26 25 20 25V25ZM20 30.8328C15.8328 30.8328 12.5 30.0828 12.5 29.1656C12.5 28.2484 15.8328 27.4984 20 27.4984C24.1672 27.4984 27.5 28.2484 27.5 29.1656C27.5 30.0828 24.1672 30.8328 20 30.8328Z" fill="#446688"/>
<path d="M20 6.66718C15.8328 6.66718 12.5 9.99998 12.5 14.1672C12.5 18.3344 20 30 20 30C20 30 27.5 18.3328 27.5 14.1672C27.5 9.99998 24.1672 6.66718 20 6.66718ZM20 17.5C18.1672 17.5 16.6672 16 16.6672 14.1672C16.6672 12.3344 18.1672 10.8344 20 10.8344C21.8328 10.8344 23.3328 12.3344 23.3328 14.1672C23.3328 16 21.8328 17.5 20 17.5Z" fill="#446688"/>
</svg>
