<svg width="40" height="40" viewBox="0 0 40 40" fill="none" xmlns="http://www.w3.org/2000/svg">
<path d="M30 15.8328C30 14.8328 29.4172 13.9156 28.5 13.5828C29.0828 12.8328 29.1672 11.75 28.6672 10.8328C28.1672 9.91558 27.1672 9.49998 26.25 9.58278C26.3328 8.66558 25.9172 7.66558 25 7.16558C24.0828 6.66558 23.0828 6.74838 22.25 7.33276C21.9172 6.41712 21 5.83276 20 5.83276C19 5.83276 18.0828 6.41556 17.75 7.33276C16.9172 6.74996 15.9172 6.66712 15 7.16714C14.0828 7.66716 13.6672 8.66714 13.75 9.58434C12.8328 9.50153 11.8328 9.91715 11.3328 10.8343C10.8328 11.7515 10.9156 12.7515 11.5 13.5843C10.6672 14.0015 10 14.8343 10 15.8343C10 16.8343 10.5828 17.7515 11.5 18.0843C10.9172 18.8343 10.8328 19.9171 11.3328 20.8343C11.8328 21.7515 12.8328 22.1671 13.75 22.0843C13.6672 23.0015 14.0828 24.0015 15 24.5015C15 24.5015 15.0828 24.5015 15.0828 24.5844L12.5828 32.5844L15.75 30.9172L17.4172 34.0844L20 25.8344H20.0828H20.1656L22.7484 34.1672L24.4156 31L27.5828 32.6672L25 24.5844C25 24.5844 25.0829 24.5844 25.0829 24.5015C26.0001 24.0015 26.4157 23.0015 26.3329 22.0843C27.2501 22.1672 28.2501 21.7515 28.7501 20.8343C29.2501 19.9171 29.1673 18.9171 28.5829 18.0843C29.4172 17.75 30.0001 16.8328 30.0001 15.8328L30 15.8328ZM20 21.6672C16.75 21.6672 14.1672 19.0844 14.1672 15.8344C14.1672 12.5844 16.75 10.0016 20 10.0016C23.25 10.0016 25.8328 12.5844 25.8328 15.8344C25.8328 19.0828 23.25 21.6672 20 21.6672V21.6672Z" fill="#446688"/>
</svg>
