<svg width="40" height="40" viewBox="0 0 40 40" fill="none" xmlns="http://www.w3.org/2000/svg">
<path d="M13.3328 6.66718V19.1672H6.66724V28.3344C6.66724 31.0844 8.91724 33.3344 11.6672 33.3344H28.3344C31.0844 33.3344 33.3344 31.0844 33.3344 28.3344L33.3329 6.66718H13.3328ZM10 28.3328V22.5H13.3328V28.3328C13.3328 29.25 12.5828 30 11.6656 30C10.75 30 10 29.25 10 28.3328H10ZM28.3328 30H16.3328C16.5 29.5 16.6656 28.9172 16.6656 28.3328L16.6672 9.99998H30V28.3328C30 29.25 29.25 30 28.3328 30H28.3328Z" fill="#446688"/>
<path d="M18.3329 11.6672H23.3329V16.6672H18.3329V11.6672Z" fill="#446688"/>
<path d="M25 11.6672H28.3328V13.3344H25V11.6672Z" fill="#446688"/>
<path d="M25 15H28.3328V16.6672H25V15Z" fill="#446688"/>
<path d="M18.3329 18.3328H28.3329V20H18.3329V18.3328Z" fill="#446688"/>
<path d="M18.3329 21.6672H28.3329V23.3344H18.3329V21.6672Z" fill="#446688"/>
<path d="M18.3329 25H28.3329V26.6672H18.3329V25Z" fill="#446688"/>
</svg>
