<svg width="53" height="52" viewBox="0 0 53 52" fill="none" xmlns="http://www.w3.org/2000/svg">
<path fill-rule="evenodd" clip-rule="evenodd" d="M26.28 0C11.7603 0 0 11.7603 0 26.28C0 37.9089 7.52265 47.7311 17.969 51.2132C19.283 51.4431 19.7757 50.6547 19.7757 49.9649C19.7757 49.3407 19.7429 47.2712 19.7429 45.0702C13.14 46.2857 11.4318 43.4605 10.9062 41.9823C10.6106 41.2267 9.3294 38.8944 8.2125 38.2702C7.2927 37.7775 5.9787 36.5621 8.17965 36.5292C10.2492 36.4964 11.7275 38.4345 12.2202 39.2229C14.5854 43.1978 18.3632 42.0809 19.8743 41.391C20.1042 39.6828 20.7941 38.533 21.5496 37.876C15.7023 37.219 9.5922 34.9524 9.5922 24.9003C9.5922 22.0424 10.6106 19.6771 12.2859 17.8375C12.0231 17.1805 11.1033 14.4869 12.5487 10.8734C12.5487 10.8734 14.7496 10.1835 19.7757 13.5671C21.8781 12.9758 24.1119 12.6801 26.3457 12.6801C28.5795 12.6801 30.8133 12.9758 32.9157 13.5671C37.9418 10.1507 40.1427 10.8734 40.1427 10.8734C41.5881 14.4869 40.6683 17.1805 40.4055 17.8375C42.0809 19.6771 43.0992 22.0095 43.0992 24.9003C43.0992 34.9853 36.9563 37.219 31.109 37.876C32.0616 38.6973 32.8829 40.2741 32.8829 42.7379C32.8829 46.2528 32.85 49.0779 32.85 49.9649C32.85 50.6547 33.3427 51.476 34.6567 51.2132C39.8738 49.4519 44.4072 46.099 47.6188 41.6263C50.8305 37.1536 52.5586 31.7863 52.56 26.28C52.56 11.7603 40.7997 0 26.28 0Z" fill="url(#paint0_linear_1_3)"/>
<defs>
<linearGradient id="paint0_linear_1_3" x1="57" y1="72" x2="94" y2="41.5" gradientUnits="userSpaceOnUse">
<stop stop-color="#01D1FF"/>
<stop offset="1"/>
</linearGradient>
</defs>
</svg>
