<svg width="64" height="70" viewBox="0 0 64 70" fill="none" xmlns="http://www.w3.org/2000/svg">
<path fill-rule="evenodd" clip-rule="evenodd" d="M1.85041 1.85041C4.31762 -0.616803 8.31776 -0.616803 10.785 1.85041L31.5884 22.6539L52.3919 1.85041C54.8591 -0.616803 58.8593 -0.616803 61.3265 1.85041C63.7937 4.31762 63.7937 8.31776 61.3265 10.785L36.0557 36.0557C34.8709 37.2405 33.264 37.9061 31.5884 37.9061C29.9129 37.9061 28.306 37.2405 27.1212 36.0557L1.85041 10.785C-0.616803 8.31776 -0.616803 4.31762 1.85041 1.85041Z" fill="#161925"/>
<path fill-rule="evenodd" clip-rule="evenodd" d="M2.10309 33.9444C4.57031 31.4772 8.57044 31.4772 11.0377 33.9444L31.8411 54.7479L52.6446 33.9444C55.1118 31.4772 59.112 31.4772 61.5792 33.9444C64.0464 36.4116 64.0464 40.4118 61.5792 42.879L36.3084 68.1497C35.1236 69.3345 33.5167 70.0001 31.8411 70.0001C30.1656 70.0001 28.5586 69.3345 27.3738 68.1497L2.10309 42.879C-0.364117 40.4118 -0.364117 36.4116 2.10309 33.9444Z" fill="#161925"/>
</svg>
