<svg width="200" height="27" viewBox="0 0 200 27" fill="none" xmlns="http://www.w3.org/2000/svg">
<path d="M14.1739 0.86616C14.0983 0.61513 13.948 0.39577 13.7446 0.239991C13.5412 0.0842116 13.2955 0.000138058 13.0431 1.69883e-07C12.7908 -0.000137718 12.545 0.0836672 12.3414 0.239224C12.1379 0.394781 11.9873 0.613976 11.9115 0.864923L9.32193 9.41905L1.18674 9.41287C0.933448 9.41264 0.686739 9.49698 0.482758 9.65353C0.278777 9.81009 0.128245 10.0306 0.0532145 10.2828C-0.0218161 10.5351 -0.0174019 10.8057 0.0658106 11.0551C0.149023 11.3045 0.30666 11.5196 0.515629 11.6688L7.03468 16.3192L4.58381 24.411C4.50986 24.658 4.51211 24.923 4.59025 25.1685C4.66838 25.4141 4.81846 25.6279 5.01934 25.7799C5.22022 25.9318 5.46177 26.0142 5.70995 26.0155C5.95813 26.0167 6.20042 25.9368 6.4027 25.7869L13.0427 20.8349L19.6756 25.7881C19.8779 25.9392 20.1207 26.0201 20.3696 26.0194C20.6185 26.0186 20.8608 25.9362 21.0623 25.7839C21.2638 25.6316 21.4142 25.417 21.4921 25.1706C21.5701 24.9242 21.5718 24.6585 21.4968 24.411L19.046 16.3205L25.5698 11.6701C25.7793 11.521 25.9374 11.3059 26.0209 11.0562C26.1045 10.8066 26.1091 10.5356 26.034 10.283C25.9589 10.0305 25.8081 9.80967 25.6037 9.65305C25.3994 9.49643 25.1523 9.41225 24.8987 9.41287L16.7575 9.41905L14.1727 0.864923L14.1739 0.86616Z" fill="#FF850A"/>
<path d="M57.652 0.86616C57.5765 0.61513 57.4261 0.39577 57.2227 0.239991C57.0194 0.0842116 56.7736 0.000138058 56.5213 1.69883e-07C56.2689 -0.000137718 56.0231 0.0836672 55.8196 0.239224C55.6161 0.394781 55.4655 0.613976 55.3897 0.864923L52.8001 9.41905L44.6649 9.41287C44.4116 9.41264 44.1649 9.49698 43.9609 9.65353C43.7569 9.81009 43.6064 10.0306 43.5314 10.2828C43.4563 10.5351 43.4607 10.8057 43.544 11.0551C43.6272 11.3045 43.7848 11.5196 43.9938 11.6688L50.5128 16.3192L48.062 24.411C47.988 24.658 47.9903 24.923 48.0684 25.1685C48.1465 25.4141 48.2966 25.6279 48.4975 25.7799C48.6984 25.9318 48.9399 26.0142 49.1881 26.0155C49.4363 26.0167 49.6786 25.9368 49.8808 25.7869L56.5208 20.8349L63.1537 25.7881C63.356 25.9392 63.5989 26.0201 63.8477 26.0194C64.0966 26.0186 64.339 25.9362 64.5404 25.7839C64.7419 25.6316 64.8923 25.417 64.9703 25.1706C65.0483 24.9242 65.0499 24.6585 64.975 24.411L62.5241 16.3205L69.0479 11.6701C69.2574 11.521 69.4155 11.3059 69.4991 11.0562C69.5826 10.8066 69.5872 10.5356 69.5121 10.283C69.437 10.0305 69.2862 9.80967 69.0819 9.65305C68.8776 9.49643 68.6304 9.41225 68.3768 9.41287L60.2357 9.41905L57.6508 0.864923L57.652 0.86616Z" fill="#FF850A"/>
<path d="M101.13 0.86616C101.055 0.61513 100.904 0.39577 100.701 0.239991C100.498 0.0842116 100.252 0.000138058 99.9994 1.69883e-07C99.7471 -0.000137718 99.5013 0.0836672 99.2977 0.239224C99.0942 0.394781 98.9436 0.613976 98.8678 0.864923L96.2782 9.41905L88.143 9.41287C87.8897 9.41264 87.643 9.49698 87.4391 9.65353C87.2351 9.81009 87.0845 10.0306 87.0095 10.2828C86.9345 10.5351 86.9389 10.8057 87.0221 11.0551C87.1053 11.3045 87.263 11.5196 87.4719 11.6688L93.991 16.3192L91.5401 24.411C91.4662 24.658 91.4684 24.923 91.5465 25.1685C91.6247 25.4141 91.7748 25.6279 91.9756 25.7799C92.1765 25.9318 92.4181 26.0142 92.6662 26.0155C92.9144 26.0167 93.1567 25.9368 93.359 25.7869L99.999 20.8349L106.632 25.7881C106.834 25.9392 107.077 26.0201 107.326 26.0194C107.575 26.0186 107.817 25.9362 108.019 25.7839C108.22 25.6316 108.37 25.417 108.448 25.1706C108.526 24.9242 108.528 24.6585 108.453 24.411L106.002 16.3205L112.526 11.6701C112.736 11.521 112.894 11.3059 112.977 11.0562C113.061 10.8066 113.065 10.5356 112.99 10.283C112.915 10.0305 112.764 9.80967 112.56 9.65305C112.356 9.49643 112.109 9.41225 111.855 9.41287L103.714 9.41905L101.129 0.864923L101.13 0.86616Z" fill="#FF850A"/>
<path d="M144.609 0.86616C144.533 0.61513 144.383 0.39577 144.179 0.239991C143.976 0.0842116 143.73 0.000138058 143.478 1.69883e-07C143.225 -0.000137718 142.98 0.0836672 142.776 0.239224C142.573 0.394781 142.422 0.613976 142.346 0.864923L139.757 9.41905L131.621 9.41287C131.368 9.41264 131.121 9.49698 130.917 9.65353C130.713 9.81009 130.563 10.0306 130.488 10.2828C130.413 10.5351 130.417 10.8057 130.501 11.0551C130.584 11.3045 130.741 11.5196 130.95 11.6688L137.469 16.3192L135.019 24.411C134.945 24.658 134.947 24.923 135.025 25.1685C135.103 25.4141 135.253 25.6279 135.454 25.7799C135.655 25.9318 135.896 26.0142 136.145 26.0155C136.393 26.0167 136.635 25.9368 136.837 25.7869L143.477 20.8349L150.11 25.7881C150.313 25.9392 150.555 26.0201 150.804 26.0194C151.053 26.0186 151.296 25.9362 151.497 25.7839C151.698 25.6316 151.849 25.417 151.927 25.1706C152.005 24.9242 152.006 24.6585 151.932 24.411L149.481 16.3205L156.004 11.6701C156.214 11.521 156.372 11.3059 156.456 11.0562C156.539 10.8066 156.544 10.5356 156.469 10.283C156.394 10.0305 156.243 9.80967 156.038 9.65305C155.834 9.49643 155.587 9.41225 155.333 9.41287L147.192 9.41905L144.607 0.864923L144.609 0.86616Z" fill="#FF850A"/>
<path d="M188.087 0.86616C188.011 0.61513 187.861 0.39577 187.657 0.239991C187.454 0.0842116 187.208 0.000138058 186.956 1.69883e-07C186.704 -0.000137718 186.458 0.0836672 186.254 0.239224C186.051 0.394781 185.9 0.613976 185.824 0.864923L183.235 9.41905L175.1 9.41287C174.846 9.41264 174.6 9.49698 174.396 9.65353C174.192 9.81009 174.041 10.0306 173.966 10.2828C173.891 10.5351 173.895 10.8057 173.979 11.0551C174.062 11.3045 174.22 11.5196 174.428 11.6688L180.948 16.3192L178.497 24.411C178.423 24.658 178.425 24.923 178.503 25.1685C178.581 25.4141 178.731 25.6279 178.932 25.7799C179.133 25.9318 179.375 26.0142 179.623 26.0155C179.871 26.0167 180.113 25.9368 180.316 25.7869L186.956 20.8349L193.588 25.7881C193.791 25.9392 194.034 26.0201 194.282 26.0194C194.531 26.0186 194.774 25.9362 194.975 25.7839C195.177 25.6316 195.327 25.417 195.405 25.1706C195.483 24.9242 195.485 24.6585 195.41 24.411L192.959 16.3205L199.483 11.6701C199.692 11.521 199.85 11.3059 199.934 11.0562C200.017 10.8066 200.022 10.5356 199.947 10.283C199.872 10.0305 199.721 9.80967 199.517 9.65305C199.312 9.49643 199.065 9.41225 198.811 9.41287L190.67 9.41905L188.086 0.864923L188.087 0.86616Z" fill="#FF850A"/>
</svg>
