<svg width="202" height="28" viewBox="0 0 202 28" fill="none" xmlns="http://www.w3.org/2000/svg">
<path d="M14.1674 3.10293C14.0919 2.87989 13.9416 2.68499 13.7383 2.54658C13.5351 2.40817 13.2895 2.33347 13.0372 2.33334C12.785 2.33322 12.5393 2.40768 12.3358 2.5459C12.1324 2.68411 11.9819 2.87886 11.9061 3.10183L9.3177 10.7022L1.1862 10.6967C0.933024 10.6965 0.686427 10.7714 0.482539 10.9105C0.278651 11.0496 0.128187 11.2456 0.0531904 11.4697C-0.0218062 11.6938 -0.017394 11.9342 0.0657808 12.1558C0.148956 12.3775 0.306521 12.5685 0.515395 12.7011L7.03149 16.833L4.58173 24.0226C4.50781 24.2421 4.51006 24.4775 4.58816 24.6957C4.66626 24.9139 4.81628 25.1039 5.01706 25.2389C5.21785 25.3739 5.45929 25.4471 5.70735 25.4482C5.95542 25.4493 6.19761 25.3783 6.39979 25.245L13.0368 20.8452L19.6667 25.2461C19.8689 25.3804 20.1116 25.4523 20.3603 25.4516C20.6091 25.451 20.8513 25.3778 21.0527 25.2424C21.2541 25.1071 21.4044 24.9164 21.4824 24.6975C21.5603 24.4786 21.562 24.2425 21.4871 24.0226L19.0373 16.8341L25.5582 12.7022C25.7676 12.5698 25.9256 12.3787 26.0091 12.1568C26.0927 11.935 26.0972 11.6942 26.0222 11.4698C25.9471 11.2454 25.7964 11.0493 25.5921 10.9101C25.3879 10.771 25.1409 10.6962 24.8874 10.6967L16.7499 10.7022L14.1663 3.10183L14.1674 3.10293Z" fill="#FF850A"/>
<path d="M57.6258 3.10293C57.5503 2.87989 57.4 2.68499 57.1967 2.54658C56.9935 2.40817 56.7478 2.33347 56.4956 2.33334C56.2433 2.33322 55.9976 2.40768 55.7942 2.5459C55.5908 2.68411 55.4402 2.87886 55.3645 3.10183L52.7761 10.7022L44.6446 10.6967C44.3914 10.6965 44.1448 10.7714 43.9409 10.9105C43.737 11.0496 43.5866 11.2456 43.5116 11.4697C43.4366 11.6938 43.441 11.9342 43.5242 12.1558C43.6073 12.3775 43.7649 12.5685 43.9738 12.7011L50.4899 16.833L48.0401 24.0226C47.9662 24.2421 47.9684 24.4775 48.0465 24.6957C48.1246 24.9139 48.2747 25.1039 48.4754 25.2389C48.6762 25.3739 48.9177 25.4471 49.1657 25.4482C49.4138 25.4493 49.656 25.3783 49.8582 25.245L56.4952 20.8452L63.125 25.2461C63.3273 25.3804 63.5699 25.4523 63.8187 25.4516C64.0675 25.451 64.3097 25.3778 64.5111 25.2424C64.7125 25.1071 64.8628 24.9164 64.9408 24.6975C65.0187 24.4786 65.0204 24.2425 64.9455 24.0226L62.4957 16.8341L69.0165 12.7022C69.2259 12.5698 69.384 12.3787 69.4675 12.1568C69.551 11.935 69.5556 11.6942 69.4805 11.4698C69.4055 11.2454 69.2548 11.0493 69.0505 10.9101C68.8463 10.771 68.5992 10.6962 68.3457 10.6967L60.2083 10.7022L57.6246 3.10183L57.6258 3.10293Z" fill="#FF850A"/>
<path d="M101.084 3.10293C101.009 2.87989 100.858 2.68499 100.655 2.54658C100.452 2.40817 100.206 2.33347 99.9541 2.33334C99.7018 2.33322 99.4561 2.40768 99.2527 2.5459C99.0493 2.68411 98.8987 2.87886 98.823 3.10183L96.2346 10.7022L88.1031 10.6967C87.8499 10.6965 87.6033 10.7714 87.3994 10.9105C87.1955 11.0496 87.0451 11.2456 86.9701 11.4697C86.8951 11.6938 86.8995 11.9342 86.9827 12.1558C87.0658 12.3775 87.2234 12.5685 87.4323 12.7011L93.9484 16.833L91.4986 24.0226C91.4247 24.2421 91.4269 24.4775 91.505 24.6957C91.5831 24.9139 91.7331 25.1039 91.9339 25.2389C92.1347 25.3739 92.3762 25.4471 92.6242 25.4482C92.8723 25.4493 93.1145 25.3783 93.3167 25.245L99.9536 20.8452L106.584 25.2461C106.786 25.3804 107.028 25.4523 107.277 25.4516C107.526 25.451 107.768 25.3778 107.97 25.2424C108.171 25.1071 108.321 24.9164 108.399 24.6975C108.477 24.4786 108.479 24.2425 108.404 24.0226L105.954 16.8341L112.475 12.7022C112.684 12.5698 112.842 12.3787 112.926 12.1568C113.01 11.935 113.014 11.6942 112.939 11.4698C112.864 11.2454 112.713 11.0493 112.509 10.9101C112.305 10.771 112.058 10.6962 111.804 10.6967L103.667 10.7022L101.083 3.10183L101.084 3.10293Z" fill="#FF850A"/>
<path d="M144.543 3.10293C144.468 2.87989 144.317 2.68499 144.114 2.54658C143.911 2.40817 143.665 2.33347 143.413 2.33334C143.161 2.33322 142.915 2.40768 142.711 2.5459C142.508 2.68411 142.357 2.87886 142.282 3.10183L139.693 10.7022L131.562 10.6967C131.309 10.6965 131.062 10.7714 130.858 10.9105C130.654 11.0496 130.504 11.2456 130.429 11.4697C130.354 11.6938 130.358 11.9342 130.441 12.1558C130.525 12.3775 130.682 12.5685 130.891 12.7011L137.407 16.833L134.957 24.0226C134.883 24.2421 134.886 24.4775 134.964 24.6957C135.042 24.9139 135.192 25.1039 135.393 25.2389C135.593 25.3739 135.835 25.4471 136.083 25.4482C136.331 25.4493 136.573 25.3783 136.775 25.245L143.412 20.8452L150.042 25.2461C150.244 25.3804 150.487 25.4523 150.736 25.4516C150.985 25.451 151.227 25.3778 151.428 25.2424C151.63 25.1071 151.78 24.9164 151.858 24.6975C151.936 24.4786 151.938 24.2425 151.863 24.0226L149.413 16.8341L155.934 12.7022C156.143 12.5698 156.301 12.3787 156.385 12.1568C156.468 11.935 156.473 11.6942 156.398 11.4698C156.323 11.2454 156.172 11.0493 155.968 10.9101C155.763 10.771 155.516 10.6962 155.263 10.6967L147.126 10.7022L144.542 3.10183L144.543 3.10293Z" fill="#FF850A"/>
<path d="M186.961 2.33334L190.09 11.5815L200 11.5754L192.028 16.6504L195.014 25.4543L186.961 20.0843L178.901 25.4543L181.887 16.6504L173.922 11.5766L183.825 11.5815L186.961 2.33334Z" stroke="#FF850A" stroke-width="3.942" stroke-miterlimit="10" stroke-linejoin="round"/>
</svg>
