<svg width="61" height="61" viewBox="0 0 61 61" fill="none" xmlns="http://www.w3.org/2000/svg">
<path fill-rule="evenodd" clip-rule="evenodd" d="M60.0686 30.0343C60.0686 46.6222 46.6222 60.0686 30.0343 60.0686C13.4464 60.0686 0 46.6222 0 30.0343C0 13.4464 13.4464 0 30.0343 0C46.6222 0 60.0686 13.4464 60.0686 30.0343ZM20.144 24.9074C19.8669 24.6206 19.5355 24.3918 19.1691 24.2344C18.8027 24.077 18.4086 23.9941 18.0098 23.9906C17.611 23.9872 17.2155 24.0632 16.8464 24.2142C16.4773 24.3652 16.1419 24.5882 15.8599 24.8702C15.5779 25.1522 15.3549 25.4875 15.2039 25.8567C15.0529 26.2258 14.9769 26.6213 14.9804 27.02C14.9838 27.4188 15.0667 27.813 15.2241 28.1794C15.3815 28.5458 15.6103 28.8772 15.8971 29.1543L27.9109 41.168C28.4741 41.7311 29.2379 42.0474 30.0343 42.0474C30.8307 42.0474 31.5945 41.7311 32.1577 41.168L44.1714 29.1543C44.7185 28.5878 45.0213 27.8292 45.0144 27.0417C45.0076 26.2542 44.6917 25.5009 44.1348 24.944C43.578 24.3872 42.8247 24.0713 42.0372 24.0645C41.2497 24.0576 40.491 24.3603 39.9246 24.9074L33.5698 31.2622C31.6172 33.2148 28.4514 33.2148 26.4988 31.2622L20.144 24.9074Z" fill="#FF850A"/>
</svg>
