<svg width="63" height="56" viewBox="0 0 63 56" fill="none" xmlns="http://www.w3.org/2000/svg">
<path d="M47.54 6.49121H60.2634" stroke="#161925" stroke-width="5" stroke-linecap="round" stroke-linejoin="round"/>
<path d="M3 6.49121H29.3402" stroke="#161925" stroke-width="5" stroke-linecap="round" stroke-linejoin="round"/>
<path d="M44.1979 9.98213C46.1259 9.98213 47.6889 8.41913 47.6889 6.49107C47.6889 4.563 46.1259 3 44.1979 3C42.2698 3 40.7068 4.563 40.7068 6.49107C40.7068 8.41913 42.2698 9.98213 44.1979 9.98213Z" stroke="#161925" stroke-width="5" stroke-linecap="round" stroke-linejoin="round"/>
<path d="M47.54 49.509H60.2634" stroke="#161925" stroke-width="5" stroke-linecap="round" stroke-linejoin="round"/>
<path d="M3 49.509H29.3402" stroke="#161925" stroke-width="5" stroke-linecap="round" stroke-linejoin="round"/>
<path d="M44.1979 53C46.1259 53 47.6889 51.437 47.6889 49.5089C47.6889 47.5808 46.1259 46.0178 44.1979 46.0178C42.2698 46.0178 40.7068 47.5808 40.7068 49.5089C40.7068 51.437 42.2698 53 44.1979 53Z" stroke="#161925" stroke-width="5" stroke-linecap="round" stroke-linejoin="round"/>
<path d="M15.7234 28.0002H3" stroke="#161925" stroke-width="5" stroke-linecap="round" stroke-linejoin="round"/>
<path d="M60.2634 28.0002H33.9232" stroke="#161925" stroke-width="5" stroke-linecap="round" stroke-linejoin="round"/>
<path d="M19.0655 31.4912C20.9935 31.4912 22.5565 29.9282 22.5565 28.0001C22.5565 26.072 20.9935 24.509 19.0655 24.509C17.1374 24.509 15.5744 26.072 15.5744 28.0001C15.5744 29.9282 17.1374 31.4912 19.0655 31.4912Z" stroke="#161925" stroke-width="5" stroke-linecap="round" stroke-linejoin="round"/>
</svg>
