<svg width="53" height="46" viewBox="0 0 53 46" fill="none" xmlns="http://www.w3.org/2000/svg">
<path d="M45.1205 32.4975H17.3936L11.5021 7.49121H50.0117L45.1205 32.4975Z" stroke="#161925" stroke-width="5" stroke-linecap="round" stroke-linejoin="round"/>
<path d="M23.5051 43C24.3338 43 25.0055 42.3283 25.0055 41.4996C25.0055 40.671 24.3338 39.9993 23.5051 39.9993C22.6765 39.9993 22.0048 40.671 22.0048 41.4996C22.0048 42.3283 22.6765 43 23.5051 43Z" stroke="#161925" stroke-width="5" stroke-linecap="round" stroke-linejoin="round"/>
<path d="M38.5089 43C39.3376 43 40.0093 42.3283 40.0093 41.4996C40.0093 40.671 39.3376 39.9993 38.5089 39.9993C37.6803 39.9993 37.0085 40.671 37.0085 41.4996C37.0085 42.3283 37.6803 43 38.5089 43Z" stroke="#161925" stroke-width="5" stroke-linecap="round" stroke-linejoin="round"/>
<path d="M47.0109 19.9941H33.0074" stroke="#161925" stroke-width="5" stroke-linecap="round" stroke-linejoin="round"/>
<path d="M11.5622 7.67115L8.99152 5.11051C7.75274 3.8685 6.09287 3.13674 4.34036 3.06001L3 3" stroke="#161925" stroke-width="5" stroke-linecap="round" stroke-linejoin="round"/>
</svg>
