<svg width="40" height="40" viewBox="0 0 40 40" fill="none" xmlns="http://www.w3.org/2000/svg">
<g clip-path="url(#clip0_908_28)">
<rect width="40" height="40" rx="17.5031" fill="white"/>
<path fill-rule="evenodd" clip-rule="evenodd" d="M87.5154 0H-0.000183105V87.5156H87.5154V0ZM9.19995 10.7656C9.19995 9.9014 9.92343 9.19995 10.8153 9.19995H29.4409C30.3331 9.19995 31.0562 9.9014 31.0562 10.7656V29.4909C31.0562 30.3553 30.3331 31.0562 29.4409 31.0562H10.8153C9.92351 31.0562 9.19995 30.3554 9.19995 29.4911V10.7656ZM15.8417 27.4908V17.6511H12.5711V27.4908H15.8417ZM14.2071 16.3078C15.3474 16.3078 16.0573 15.5523 16.0573 14.608C16.0359 13.6422 15.3474 12.9077 14.2288 12.9077C13.1094 12.9077 12.3783 13.6422 12.3783 14.6079C12.3783 15.5522 13.088 16.3078 14.1856 16.3078L14.2071 16.3078ZM17.652 27.4908H20.9223V21.9965C20.9223 21.7028 20.9437 21.4083 21.0301 21.1985C21.2664 20.6107 21.8045 20.0022 22.7082 20.0022C23.8914 20.0022 24.3649 20.9045 24.3649 22.2274V27.4908H27.6352V21.849C27.6352 18.8268 26.0219 17.4204 23.8702 17.4204C22.1354 17.4204 21.3573 18.3739 20.9226 19.0442V17.6514H17.6522C17.6949 18.5745 17.652 27.4908 17.652 27.4908Z" fill="#446688"/>
</g>
<defs>
<clipPath id="clip0_908_28">
<rect width="40" height="40" rx="17.5031" fill="white"/>
</clipPath>
</defs>
</svg>
