<svg width="40" height="40" viewBox="0 0 40 40" fill="none" xmlns="http://www.w3.org/2000/svg">
<path d="M22.5 11.6672C22.5 13.0469 21.3812 14.1672 20 14.1672C18.6188 14.1672 17.5 13.0469 17.5 11.6672C17.5 10.2859 18.6188 9.16718 20 9.16718C21.3812 9.16718 22.5 10.2859 22.5 11.6672Z" fill="#446688"/>
<path d="M13.3329 14.1672C13.3329 15.5469 12.2141 16.6672 10.8329 16.6672C9.45321 16.6672 8.33289 15.5469 8.33289 14.1672C8.33289 12.7859 9.45321 11.6672 10.8329 11.6672C12.2141 11.6672 13.3329 12.7859 13.3329 14.1672Z" fill="#446688"/>
<path d="M31.6672 14.1672C31.6672 15.5469 30.5469 16.6672 29.1672 16.6672C27.786 16.6672 26.6672 15.5469 26.6672 14.1672C26.6672 12.7859 27.786 11.6672 29.1672 11.6672C30.5469 11.6672 31.6672 12.7859 31.6672 14.1672Z" fill="#446688"/>
<path d="M29.1673 26.6672C29.1673 28.9672 25.0625 30.8328 20.0001 30.8328C14.9377 30.8328 10.8329 28.9672 10.8329 26.6672C10.8329 24.3656 14.9377 22.5 20.0001 22.5C25.0625 22.5 29.1673 24.3656 29.1673 26.6672Z" fill="#446688"/>
<path d="M14.8328 21.5C14.4172 19.6672 12.75 18.3328 10.8328 18.3328C8.50005 18.3328 6.66565 20.1656 6.66565 22.5V26.6672H9.16565C9.16721 24.5828 11.0828 22.5 14.8328 21.5V21.5Z" fill="#446688"/>
<path d="M20.0001 20.8328C21.5829 20.8328 22.9173 21 24.1673 21.25V20C24.1673 17.6672 22.3345 15.8328 20.0001 15.8328C17.6673 15.8328 15.8329 17.6656 15.8329 20V21.25C17.0829 21 18.4172 20.8328 20.0001 20.8328Z" fill="#446688"/>
<path d="M29.1672 18.3328C27.25 18.3328 25.5844 19.6656 25.1672 21.5C28.9172 22.5 30.8328 24.5828 30.8328 26.6672H33.3328V22.5C33.3328 20.1672 31.5 18.3328 29.1672 18.3328V18.3328Z" fill="#446688"/>
</svg>
