<svg width="40" height="40" viewBox="0 0 40 40" fill="none" xmlns="http://www.w3.org/2000/svg">
<path d="M24.1672 7.24998V12.8328C25.6672 13.5 26.6672 14.9156 26.6672 16.6656C26.6672 18.9984 24.8344 20.8328 22.5 20.8328C20.1672 20.8328 18.3328 19 18.3328 16.6656C18.3328 14.9984 19.3328 13.4984 20.8328 12.8328V6.66718C15.3328 6.66718 10.8328 11.1672 10.8328 16.6672L8.41558 22.1672C8.33276 22.25 8.33276 22.3328 8.33276 22.5C8.33276 23 8.66558 23.3328 9.16556 23.3328H10.8328V25.8328C10.8328 28.1656 12.6656 30 15 30C15.25 30 15.5828 30 15.8328 29.9172V33.3328H26.6656L26.6671 24.75C29.1671 22.9172 30.8343 20 30.8343 16.6672C30.8328 12.3328 28.0828 8.58282 24.1671 7.25002L24.1672 7.24998ZM14.5828 18.3328C13.9156 18.3328 13.3328 17.75 13.3328 17.0828C13.3328 16.4156 13.9156 15.8328 14.5828 15.8328C15.25 15.8328 15.8328 16.4156 15.8328 17.0828C15.8328 17.75 15.25 18.3328 14.5828 18.3328Z" fill="#446688"/>
<path d="M25 16.6672C25 18.0469 23.8812 19.1672 22.5 19.1672C21.1188 19.1672 20 18.0469 20 16.6672C20 15.2859 21.1188 14.1672 22.5 14.1672C23.8812 14.1672 25 15.2859 25 16.6672Z" fill="#446688"/>
</svg>
